<?xml version="1.0" standalone="no"?>
<!DOCTYPE svg PUBLIC "-//W3C//DTD SVG 20010904//EN"
 "http://www.w3.org/TR/2001/REC-SVG-20010904/DTD/svg10.dtd">
<svg version="1.0" xmlns="http://www.w3.org/2000/svg"
 width="2143.000000pt" height="605.000000pt" viewBox="0 0 2143.000000 605.000000"
 preserveAspectRatio="xMidYMid meet">

<g transform="translate(0.000000,605.000000) scale(0.100000,-0.100000)"
fill="#000000" stroke="none">
<path d="M9026 6003 c46 -265 114 -508 201 -720 4 -10 -42 -13 -211 -13 l-216
0 0 -275 0 -275 575 0 575 0 0 -170 c0 -93 3 -170 6 -170 3 0 181 50 395 112
l389 111 0 59 0 58 202 0 203 0 407 116 408 117 0 158 0 159 -250 0 c-137 0
-250 4 -250 8 0 5 18 55 39 113 68 181 132 411 165 597 l6 32 -380 0 -380 0
-4 -22 c-3 -13 -12 -63 -21 -113 -34 -186 -80 -343 -153 -522 l-37 -93 -353 0
-353 0 -45 94 c-63 134 -118 307 -157 502 l-35 169 -366 3 -367 2 7 -37z"/>
<path d="M12240 5925 l0 -65 165 0 165 0 0 -660 0 -660 250 0 250 0 0 660 0
660 165 0 165 0 0 65 0 65 -580 0 -580 0 0 -65z"/>
<path d="M14000 5452 c0 -506 1 -544 20 -617 47 -184 166 -274 405 -306 110
-14 305 -6 395 17 132 34 234 105 280 193 52 104 53 117 58 704 l3 547 -80 0
-81 0 0 -525 c0 -551 -3 -591 -46 -676 -36 -72 -78 -93 -194 -97 -84 -3 -100
-1 -140 20 -56 29 -95 101 -110 203 -5 39 -10 294 -10 573 l0 502 -250 0 -250
0 0 -538z"/>
<path d="M15680 5265 l0 -725 480 0 480 0 0 75 0 75 -225 0 -225 0 0 650 0
650 -255 0 -255 0 0 -725z"/>
<path d="M17230 5265 l0 -725 250 0 250 0 0 725 0 725 -250 0 -250 0 0 -725z"/>
<path d="M18590 5278 c-177 -392 -325 -719 -327 -726 -4 -10 13 -12 76 -10
l82 3 46 103 46 102 288 0 289 0 49 -105 50 -105 275 0 c152 0 276 1 276 3 0
1 -152 326 -338 722 l-338 720 -75 3 -76 3 -323 -713z m324 -157 c58 -122 106
-227 106 -232 0 -5 -97 -9 -221 -9 -216 0 -220 0 -214 20 4 11 45 105 92 208
46 103 91 202 99 221 9 21 18 31 24 25 5 -5 56 -110 114 -233z"/>
<path d="M20250 5265 l0 -725 75 0 75 0 0 430 c0 237 3 430 8 430 4 -1 180
-194 392 -430 l385 -429 118 -1 117 0 0 725 0 725 -80 0 -80 0 -2 -401 -3
-400 -353 400 -353 401 -150 0 -149 0 0 -725z"/>
<path d="M10 4654 c0 -1249 1 -1316 17 -1312 10 3 195 56 411 119 l392 113 0
928 0 928 2120 0 2120 0 0 -315 0 -315 23 5 c12 3 189 54 392 113 l370 108 3
472 2 472 -2925 0 -2925 0 0 -1316z"/>
<path d="M6030 5505 l0 -275 150 0 150 0 0 -945 c0 -520 2 -945 5 -945 5 0
573 161 658 186 15 5 17 21 17 160 l0 154 350 0 349 0 3 -53 3 -53 328 94 327
95 0 654 0 653 145 0 145 0 0 275 0 275 -1315 0 -1315 0 0 -275z m1680 -705
l0 -430 -350 0 -350 0 0 430 0 430 350 0 350 0 0 -430z"/>
<path d="M1945 5153 c-65 -175 -165 -325 -309 -468 -122 -122 -241 -207 -398
-286 l-98 -49 0 -199 0 -198 113 33 c61 18 160 48 219 67 l107 34 23 -24 c13
-14 67 -65 120 -114 l96 -90 349 101 c191 55 352 101 357 103 4 1 -41 42 -100
90 l-109 87 -208 0 c-123 0 -206 4 -203 9 4 5 39 27 79 49 39 22 112 70 160
106 l89 66 789 0 790 0 -12 -22 c-9 -17 -9 -20 2 -16 8 3 209 61 446 129 l433
124 0 108 0 107 -1061 0 c-1007 0 -1061 1 -1054 18 3 9 16 46 27 82 11 36 30
85 43 110 12 25 26 55 30 68 l6 22 -354 0 -354 0 -18 -47z"/>
<path d="M12330 2105 l0 -2095 4289 0 c4122 0 4291 1 4348 18 227 71 404 346
442 685 7 65 11 655 11 1792 l0 1695 -4545 0 -4545 0 0 -2095z m1530 1986 c-5
-11 -10 -30 -10 -43 0 -13 -15 -58 -34 -100 l-34 -78 594 0 595 0 -3 -152 -3
-153 -332 -3 -333 -2 0 -154 c0 -84 -3 -174 -6 -200 l-7 -46 392 0 391 0 0
-155 0 -155 -365 0 -366 0 53 -77 c129 -192 335 -347 591 -443 l87 -33 0 -144
c0 -133 -1 -144 -17 -140 -10 3 -43 11 -73 17 -354 77 -656 231 -856 437 l-72
74 -77 -76 c-188 -183 -476 -327 -845 -421 -74 -19 -138 -34 -142 -34 -5 0 -8
65 -8 144 l0 143 90 33 c123 44 278 120 366 182 120 83 241 225 269 316 l6 22
-370 0 -371 0 0 155 0 155 409 0 408 0 7 38 c3 20 6 110 6 200 l0 162 -109 0
c-109 0 -109 0 -162 -36 -123 -82 -290 -150 -459 -184 -54 -11 -103 -20 -109
-20 -7 0 -11 39 -11 118 l0 118 63 31 c132 65 237 166 297 283 32 63 70 181
70 216 l0 24 245 0 c240 0 245 0 235 -19z m4430 3 c0 -17 -220 -334 -307 -444
-103 -129 -262 -297 -368 -389 l-60 -53 330 6 c280 5 552 19 563 31 7 7 -64
173 -124 289 l-64 126 224 0 224 0 52 -87 c118 -201 233 -459 321 -718 l47
-140 -256 -3 c-182 -2 -258 1 -263 9 -3 6 -12 45 -19 86 l-13 75 -56 -6 c-258
-31 -658 -50 -1233 -61 l-318 -6 0 199 0 200 88 80 c89 81 224 228 327 357 64
80 237 336 275 408 l25 47 302 0 c167 0 303 -3 303 -6z m1450 -318 l0 -305 73
20 c245 68 448 205 569 385 l43 63 248 1 c168 0 247 -3 247 -11 0 -23 -73
-167 -126 -246 -190 -285 -508 -466 -946 -538 l-107 -18 -3 -151 c-4 -232 7
-276 83 -321 32 -19 52 -20 321 -20 276 0 288 1 315 21 53 40 67 79 72 197 l3
107 205 0 205 0 -5 -182 c-5 -202 -14 -245 -69 -338 -41 -67 -113 -123 -198
-152 -64 -23 -71 -23 -600 -23 l-535 0 -57 23 c-158 64 -241 176 -268 360 -5
38 -10 365 -10 750 l0 682 270 0 270 0 0 -304z m-2932 -543 c-3 -638 -3 -638
-26 -700 -50 -132 -136 -217 -269 -264 l-68 -24 -612 -3 -613 -3 0 816 0 815
795 0 796 0 -3 -637z m2092 -1680 c0 -637 -4 -1031 -10 -1071 -33 -198 -151
-320 -347 -358 -52 -10 -147 -14 -309 -14 l-234 0 0 180 0 180 145 0 c242 0
255 13 255 253 l0 157 -395 0 -395 0 0 -395 0 -395 -250 0 -250 0 0 1235 0
1235 895 0 895 0 0 -1007z m840 228 l0 -350 85 29 c249 84 457 250 568 452
l32 58 258 0 c141 0 257 -2 257 -6 0 -16 -67 -159 -105 -224 -196 -334 -523
-546 -972 -631 l-123 -24 0 -230 c0 -269 4 -283 86 -325 48 -25 51 -25 309
-25 251 0 262 1 307 23 67 33 88 80 88 200 l0 92 215 0 215 0 0 -147 c0 -274
-51 -393 -199 -468 -107 -54 -141 -57 -608 -62 -460 -5 -592 2 -685 37 -107
40 -177 112 -221 228 -22 57 -22 61 -25 890 l-3 832 261 0 260 0 0 -349z
m-3202 -518 c-4 -627 -6 -715 -21 -766 -53 -181 -151 -275 -344 -330 l-78 -22
-1347 -3 -1348 -3 0 916 0 915 1571 0 1570 0 -3 -707z"/>
<path d="M15700 3054 l0 -496 243 4 c228 3 244 4 284 25 45 25 74 59 91 112 8
23 12 160 12 442 l0 409 -315 0 -315 0 0 -496z"/>
<path d="M17610 2040 l0 -180 395 0 395 0 0 180 0 180 -395 0 -395 0 0 -180z"/>
<path d="M17610 1360 l0 -180 395 0 395 0 0 180 0 180 -395 0 -395 0 0 -180z"/>
<path d="M13940 1415 l0 -195 1030 0 1030 0 0 195 0 195 -1030 0 -1030 0 0
-195z"/>
<path d="M13940 695 l0 -195 973 2 972 3 39 24 c61 38 76 82 76 234 l0 127
-1030 0 -1030 0 0 -195z"/>
</g>
</svg>
